<svg width="25" height="25" viewBox="0 0 25 25" fill="none" xmlns="http://www.w3.org/2000/svg">
<g clip-path="url(#clip0_3977_44586)">
<path d="M12.5 25C19.4036 25 25 19.4036 25 12.5C25 5.59644 19.4036 0 12.5 0C5.59644 0 0 5.59644 0 12.5C0 19.4036 5.59644 25 12.5 25Z" fill="#F7931A"/>
<path d="M18.1168 10.9531C18.3621 9.31563 17.1145 8.43516 15.4098 7.84766L15.9629 5.62891L14.6129 5.29297L14.0738 7.45312C13.7191 7.36406 13.3551 7.28125 12.9918 7.19844L13.5348 5.02422L12.1848 4.6875L11.6316 6.90547C11.3379 6.83828 11.0488 6.77266 10.7691 6.70234L10.7707 6.69531L8.9082 6.23047L8.54883 7.67266C8.54883 7.67266 9.55117 7.90234 9.53008 7.91641C10.077 8.05313 10.1754 8.41484 10.159 8.70234L9.5293 11.2297C9.5668 11.2391 9.61523 11.2531 9.66992 11.2742L9.52695 11.2391L8.64414 14.7797C8.57695 14.9453 8.40742 15.1945 8.02461 15.1C8.03867 15.1195 7.04336 14.8555 7.04336 14.8555L6.37305 16.4008L8.13086 16.8391C8.45742 16.9211 8.77773 17.007 9.09258 17.0875L8.53399 19.3312L9.8832 19.6672L10.4363 17.4484C10.8051 17.5477 11.1629 17.6398 11.5129 17.7273L10.9613 19.9367L12.3113 20.2727L12.8699 18.0336C15.173 18.4695 16.9043 18.2937 17.6332 16.2109C18.2207 14.5344 17.6043 13.5664 16.3926 12.9359C17.2754 12.7328 17.9395 12.1523 18.1168 10.9531ZM15.0309 15.2797C14.6145 16.957 11.7902 16.05 10.8746 15.8227L11.6168 12.85C12.5324 13.0789 15.4676 13.5313 15.0309 15.2797ZM15.4488 10.9289C15.0684 12.4547 12.7184 11.6789 11.9566 11.4891L12.6285 8.79375C13.3902 8.98359 15.8457 9.3375 15.4488 10.9289Z" fill="#F2F1F0"/>
</g>
<defs>
<clipPath id="clip0_3977_44586">
<rect width="25" height="25" fill="white"/>
</clipPath>
</defs>
</svg>
